<svg xmlns="http://www.w3.org/2000/svg" xmlns:xlink="http://www.w3.org/1999/xlink" width="446" zoomAndPan="magnify" viewBox="0 0 334.5 88.499997" height="118" preserveAspectRatio="xMidYMid meet" version="1.0"><defs><clipPath id="fdffe7a8b3"><path d="M 10 0 L 323 0 L 323 15.660156 L 10 15.660156 Z M 10 0 " clip-rule="nonzero"/></clipPath><clipPath id="9ef6e4d66c"><path d="M 68.257812 11.0625 L 129 11.0625 L 129 87.878906 L 68.257812 87.878906 Z M 68.257812 11.0625 " clip-rule="nonzero"/></clipPath><clipPath id="673031a1e5"><path d="M 78 11.0625 L 140 11.0625 L 140 87.878906 L 78 87.878906 Z M 78 11.0625 " clip-rule="nonzero"/></clipPath><clipPath id="aba2b17da1"><path d="M 88 11.0625 L 150 11.0625 L 150 87.878906 L 88 87.878906 Z M 88 11.0625 " clip-rule="nonzero"/></clipPath><clipPath id="95e4d89a59"><path d="M 98 11.0625 L 160 11.0625 L 160 87.878906 L 98 87.878906 Z M 98 11.0625 " clip-rule="nonzero"/></clipPath><clipPath id="5d15866e96"><path d="M 108 11.0625 L 170 11.0625 L 170 87.878906 L 108 87.878906 Z M 108 11.0625 " clip-rule="nonzero"/></clipPath><clipPath id="b256591c72"><path d="M 119 11.0625 L 180 11.0625 L 180 87.878906 L 119 87.878906 Z M 119 11.0625 " clip-rule="nonzero"/></clipPath><clipPath id="636c785a5a"><path d="M 129 11.0625 L 190 11.0625 L 190 87.878906 L 129 87.878906 Z M 129 11.0625 " clip-rule="nonzero"/></clipPath><clipPath id="abb66abc77"><path d="M 139 11.0625 L 200 11.0625 L 200 87.878906 L 139 87.878906 Z M 139 11.0625 " clip-rule="nonzero"/></clipPath></defs><g clip-path="url(#fdffe7a8b3)"><path fill="#ffffff" d="M 314.8125 0.296875 C 314.386719 0.296875 313.964844 0.332031 313.546875 0.40625 C 313.128906 0.476562 312.71875 0.585938 312.316406 0.726562 C 311.917969 0.871094 311.53125 1.046875 311.160156 1.253906 C 310.789062 1.464844 310.441406 1.703125 310.109375 1.972656 C 309.78125 2.242188 309.476562 2.535156 309.199219 2.855469 C 308.921875 3.175781 308.671875 3.519531 308.449219 3.882812 C 308.230469 4.246094 308.042969 4.628906 307.890625 5.023438 C 307.734375 5.417969 307.613281 5.824219 307.53125 6.242188 L 24.984375 6.242188 C 24.921875 5.945312 24.84375 5.652344 24.75 5.363281 C 24.652344 5.074219 24.539062 4.792969 24.40625 4.519531 C 24.273438 4.246094 24.128906 3.980469 23.964844 3.726562 C 23.800781 3.46875 23.621094 3.222656 23.429688 2.992188 C 23.234375 2.757812 23.027344 2.535156 22.804688 2.328125 C 22.585938 2.117188 22.351562 1.921875 22.109375 1.742188 C 21.863281 1.5625 21.609375 1.398438 21.34375 1.25 C 21.078125 1.101562 20.804688 0.96875 20.523438 0.851562 C 20.242188 0.738281 19.957031 0.640625 19.664062 0.558594 C 19.371094 0.480469 19.074219 0.417969 18.773438 0.375 C 18.472656 0.332031 18.167969 0.304688 17.867188 0.300781 C 17.5625 0.292969 17.257812 0.304688 16.957031 0.335938 C 16.652344 0.367188 16.355469 0.414062 16.058594 0.480469 C 15.761719 0.550781 15.472656 0.632812 15.183594 0.738281 C 14.898438 0.839844 14.621094 0.960938 14.347656 1.097656 C 14.078125 1.234375 13.816406 1.386719 13.5625 1.554688 C 13.3125 1.726562 13.070312 1.910156 12.839844 2.109375 C 12.609375 2.308594 12.394531 2.519531 12.191406 2.746094 C 11.988281 2.96875 11.796875 3.207031 11.621094 3.457031 C 11.449219 3.703125 11.289062 3.964844 11.144531 4.230469 C 11.003906 4.5 10.878906 4.773438 10.769531 5.058594 C 10.660156 5.34375 10.566406 5.632812 10.492188 5.925781 C 10.421875 6.222656 10.363281 6.519531 10.328125 6.820312 C 10.289062 7.121094 10.273438 7.425781 10.273438 7.730469 C 10.273438 8.03125 10.289062 8.335938 10.328125 8.636719 C 10.363281 8.9375 10.421875 9.238281 10.492188 9.53125 C 10.566406 9.828125 10.660156 10.117188 10.769531 10.398438 C 10.878906 10.683594 11.003906 10.957031 11.144531 11.226562 C 11.289062 11.496094 11.449219 11.753906 11.621094 12 C 11.796875 12.25 11.988281 12.488281 12.191406 12.710938 C 12.394531 12.9375 12.609375 13.148438 12.839844 13.347656 C 13.070312 13.546875 13.3125 13.730469 13.5625 13.902344 C 13.816406 14.070312 14.078125 14.222656 14.347656 14.359375 C 14.621094 14.496094 14.898438 14.617188 15.183594 14.71875 C 15.472656 14.824219 15.761719 14.910156 16.058594 14.976562 C 16.355469 15.042969 16.652344 15.09375 16.957031 15.121094 C 17.257812 15.152344 17.5625 15.164062 17.867188 15.160156 C 18.167969 15.152344 18.472656 15.125 18.773438 15.082031 C 19.074219 15.039062 19.371094 14.976562 19.664062 14.898438 C 19.957031 14.816406 20.242188 14.71875 20.523438 14.605469 C 20.804688 14.488281 21.078125 14.355469 21.34375 14.207031 C 21.609375 14.058594 21.863281 13.894531 22.109375 13.714844 C 22.351562 13.535156 22.585938 13.339844 22.804688 13.132812 C 23.027344 12.921875 23.234375 12.703125 23.429688 12.46875 C 23.621094 12.234375 23.800781 11.988281 23.964844 11.730469 C 24.128906 11.476562 24.273438 11.210938 24.40625 10.9375 C 24.539062 10.664062 24.652344 10.382812 24.75 10.09375 C 24.84375 9.804688 24.921875 9.511719 24.984375 9.214844 L 307.679688 9.214844 C 307.769531 9.671875 307.90625 10.117188 308.082031 10.550781 C 308.261719 10.980469 308.476562 11.394531 308.730469 11.785156 C 308.988281 12.175781 309.277344 12.539062 309.597656 12.875 C 309.921875 13.214844 310.273438 13.515625 310.65625 13.789062 C 311.035156 14.058594 311.4375 14.289062 311.863281 14.484375 C 312.289062 14.679688 312.726562 14.832031 313.179688 14.945312 C 313.632812 15.054688 314.09375 15.125 314.558594 15.148438 C 315.027344 15.175781 315.492188 15.15625 315.953125 15.09375 C 316.417969 15.03125 316.867188 14.925781 317.3125 14.777344 C 317.753906 14.628906 318.179688 14.441406 318.585938 14.214844 C 318.996094 13.984375 319.378906 13.722656 319.734375 13.421875 C 320.09375 13.121094 320.417969 12.792969 320.714844 12.429688 C 321.011719 12.066406 321.269531 11.683594 321.492188 11.269531 C 321.714844 10.859375 321.898438 10.433594 322.039062 9.988281 C 322.179688 9.542969 322.28125 9.089844 322.335938 8.625 C 322.394531 8.160156 322.40625 7.695312 322.375 7.230469 C 322.34375 6.765625 322.269531 6.304688 322.152344 5.855469 C 322.03125 5.402344 321.875 4.964844 321.675781 4.542969 C 321.472656 4.121094 321.234375 3.722656 320.960938 3.34375 C 320.683594 2.96875 320.375 2.621094 320.035156 2.300781 C 319.695312 1.980469 319.328125 1.699219 318.933594 1.449219 C 318.539062 1.199219 318.125 0.988281 317.6875 0.816406 C 317.253906 0.644531 316.808594 0.515625 316.347656 0.429688 C 315.890625 0.339844 315.429688 0.296875 314.960938 0.296875 Z M 314.8125 0.296875 " fill-opacity="1" fill-rule="nonzero"/></g><g clip-path="url(#9ef6e4d66c)"><path fill="#ffffff" d="M 69.238281 87.933594 L 68.261719 86.699219 L 127.910156 11.070312 L 128.882812 12.304688 L 69.238281 87.933594 " fill-opacity="1" fill-rule="nonzero"/></g><g clip-path="url(#673031a1e5)"><path fill="#ffffff" d="M 79.390625 87.933594 L 78.417969 86.699219 L 138.0625 11.070312 L 139.035156 12.304688 L 79.390625 87.933594 " fill-opacity="1" fill-rule="nonzero"/></g><g clip-path="url(#aba2b17da1)"><path fill="#ffffff" d="M 89.542969 87.933594 L 88.566406 86.699219 L 148.214844 11.070312 L 149.1875 12.304688 L 89.542969 87.933594 " fill-opacity="1" fill-rule="nonzero"/></g><g clip-path="url(#95e4d89a59)"><path fill="#ffffff" d="M 99.691406 87.933594 L 98.71875 86.699219 L 158.367188 11.070312 L 159.339844 12.304688 L 99.691406 87.933594 " fill-opacity="1" fill-rule="nonzero"/></g><g clip-path="url(#5d15866e96)"><path fill="#ffffff" d="M 109.84375 87.933594 L 108.871094 86.699219 L 168.519531 11.070312 L 169.492188 12.304688 L 109.84375 87.933594 " fill-opacity="1" fill-rule="nonzero"/></g><g clip-path="url(#b256591c72)"><path fill="#ffffff" d="M 119.996094 87.933594 L 119.023438 86.699219 L 178.671875 11.070312 L 179.644531 12.304688 L 119.996094 87.933594 " fill-opacity="1" fill-rule="nonzero"/></g><g clip-path="url(#636c785a5a)"><path fill="#ffffff" d="M 130.148438 87.933594 L 129.175781 86.699219 L 188.824219 11.070312 L 189.796875 12.304688 L 130.148438 87.933594 " fill-opacity="1" fill-rule="nonzero"/></g><g clip-path="url(#abb66abc77)"><path fill="#ffffff" d="M 140.300781 87.933594 L 139.328125 86.699219 L 198.976562 11.070312 L 199.949219 12.304688 L 140.300781 87.933594 " fill-opacity="1" fill-rule="nonzero"/></g></svg>