<svg fill="#31859d" xmlns="http://www.w3.org/2000/svg"  viewBox="0 0 64 64" width="64px" height="64px"><path d="M 30 4 C 14.561 4 2 16.561 2 32 C 2 47.439 14.561 60 30 60 L 33 60 C 48.439 60 61 47.439 61 32 C 61 16.561 48.439 4 33 4 L 30 4 z M 33 8 C 46.233 8 57 18.766 57 32 C 57 45.234 46.233 56 33 56 C 19.767 56 9 45.234 9 32 C 9 18.766 19.767 8 33 8 z M 32 14 A 3 3 0 0 0 32 20 A 3 3 0 0 0 32 14 z M 44.220703 15.626953 L 31.804688 28.019531 C 29.688688 28.123531 28 29.858 28 32 C 28 34.209 29.791 36 32 36 C 34.092 36 35.788844 34.38975 35.964844 32.34375 L 48.458984 19.873047 L 44.220703 15.626953 z M 17 29 A 3 3 0 0 0 17 35 A 3 3 0 0 0 17 29 z M 47 29 A 3 3 0 0 0 47 35 A 3 3 0 0 0 47 29 z M 32 44 A 3 3 0 0 0 32 50 A 3 3 0 0 0 32 44 z"/></svg>