<svg xmlns="http://www.w3.org/2000/svg" xmlns:xlink="http://www.w3.org/1999/xlink" width="314" zoomAndPan="magnify" viewBox="0 0 235.5 86.249997" height="115" preserveAspectRatio="xMidYMid meet" version="1.0"><defs><clipPath id="2aad0d1e9e"><path d="M 0.765625 68.039062 L 234.238281 68.039062 L 234.238281 85.136719 L 0.765625 85.136719 Z M 0.765625 68.039062 " clip-rule="nonzero"/></clipPath><clipPath id="ae3c87ddb8"><path d="M 75.734375 0 L 137 0 L 137 76.585938 L 75.734375 76.585938 Z M 75.734375 0 " clip-rule="nonzero"/></clipPath><clipPath id="7f2ba14484"><path d="M 85 0 L 147 0 L 147 76.585938 L 85 76.585938 Z M 85 0 " clip-rule="nonzero"/></clipPath><clipPath id="b9400fd4ef"><path d="M 95 0 L 157 0 L 157 76.585938 L 95 76.585938 Z M 95 0 " clip-rule="nonzero"/></clipPath><clipPath id="65a916a29f"><path d="M 106 0 L 167 0 L 167 76.585938 L 106 76.585938 Z M 106 0 " clip-rule="nonzero"/></clipPath><clipPath id="99910ed60f"><path d="M 116 0 L 177 0 L 177 76.585938 L 116 76.585938 Z M 116 0 " clip-rule="nonzero"/></clipPath><clipPath id="8b04c4b564"><path d="M 126 0 L 187 0 L 187 76.585938 L 126 76.585938 Z M 126 0 " clip-rule="nonzero"/></clipPath><clipPath id="af78fd639e"><path d="M 136 0 L 197 0 L 197 76.585938 L 136 76.585938 Z M 136 0 " clip-rule="nonzero"/></clipPath><clipPath id="a65f1984fa"><path d="M 146 0 L 207.339844 0 L 207.339844 76.585938 L 146 76.585938 Z M 146 0 " clip-rule="nonzero"/></clipPath></defs><g clip-path="url(#2aad0d1e9e)"><path fill="#ffffff" d="M 9.367188 85.207031 C 13.574219 85.207031 17.074219 82.179688 17.8125 78.191406 L 217.003906 78.191406 C 217.742188 82.183594 221.238281 85.207031 225.449219 85.207031 C 230.191406 85.207031 234.035156 81.359375 234.035156 76.617188 C 234.035156 71.878906 230.1875 68.03125 225.449219 68.03125 C 221.238281 68.03125 217.742188 71.058594 217.003906 75.046875 L 17.8125 75.046875 C 17.074219 71.054688 13.574219 68.03125 9.367188 68.03125 C 4.621094 68.03125 0.78125 71.878906 0.78125 76.617188 C 0.78125 81.359375 4.625 85.207031 9.367188 85.207031 Z M 9.367188 85.207031 " fill-opacity="1" fill-rule="nonzero"/></g><g clip-path="url(#ae3c87ddb8)"><path fill="#ffffff" d="M 76.707031 76.636719 L 75.738281 75.410156 L 135.207031 0.0078125 L 136.175781 1.238281 L 76.707031 76.636719 " fill-opacity="1" fill-rule="nonzero"/></g><g clip-path="url(#7f2ba14484)"><path fill="#ffffff" d="M 86.828125 76.636719 L 85.859375 75.410156 L 145.328125 0.0078125 L 146.296875 1.238281 L 86.828125 76.636719 " fill-opacity="1" fill-rule="nonzero"/></g><g clip-path="url(#b9400fd4ef)"><path fill="#ffffff" d="M 96.953125 76.636719 L 95.980469 75.410156 L 155.449219 0.0078125 L 156.417969 1.238281 L 96.953125 76.636719 " fill-opacity="1" fill-rule="nonzero"/></g><g clip-path="url(#65a916a29f)"><path fill="#ffffff" d="M 107.074219 76.636719 L 106.101562 75.410156 L 165.570312 0.0078125 L 166.539062 1.238281 L 107.074219 76.636719 " fill-opacity="1" fill-rule="nonzero"/></g><g clip-path="url(#99910ed60f)"><path fill="#ffffff" d="M 117.195312 76.636719 L 116.222656 75.410156 L 175.691406 0.0078125 L 176.660156 1.238281 L 117.195312 76.636719 " fill-opacity="1" fill-rule="nonzero"/></g><g clip-path="url(#8b04c4b564)"><path fill="#ffffff" d="M 127.316406 76.636719 L 126.34375 75.410156 L 185.8125 0.0078125 L 186.78125 1.238281 L 127.316406 76.636719 " fill-opacity="1" fill-rule="nonzero"/></g><g clip-path="url(#af78fd639e)"><path fill="#ffffff" d="M 137.4375 76.636719 L 136.46875 75.410156 L 195.933594 0.0078125 L 196.902344 1.238281 L 137.4375 76.636719 " fill-opacity="1" fill-rule="nonzero"/></g><g clip-path="url(#a65f1984fa)"><path fill="#ffffff" d="M 147.558594 76.636719 L 146.589844 75.410156 L 206.054688 0.0078125 L 207.027344 1.238281 L 147.558594 76.636719 " fill-opacity="1" fill-rule="nonzero"/></g></svg>